<svg width="212" height="159" viewBox="0 0 212 159" fill="none" xmlns="http://www.w3.org/2000/svg">
<rect width="212" height="159" rx="5" fill="#F5F5F5"/>
<g clip-path="url(#clip0_431_7108)">
<path d="M131 90V100C131 101.326 130.473 102.598 129.536 103.536C128.598 104.473 127.326 105 126 105H116V100C116 98.6739 115.473 97.4021 114.536 96.4645C113.598 95.5268 112.326 95 111 95C109.674 95 108.402 95.5268 107.464 96.4645C106.527 97.4021 106 98.6739 106 100V105H96C94.6739 105 93.4021 104.473 92.4645 103.536C91.5268 102.598 91 101.326 91 100V90H86C84.6739 90 83.4021 89.4732 82.4645 88.5355C81.5268 87.5979 81 86.3261 81 85C81 83.6739 81.5268 82.4021 82.4645 81.4645C83.4021 80.5268 84.6739 80 86 80H91V70C91 67.25 93.25 65 96 65H106V60C106 58.6739 106.527 57.4021 107.464 56.4645C108.402 55.5268 109.674 55 111 55C112.326 55 113.598 55.5268 114.536 56.4645C115.473 57.4021 116 58.6739 116 60V65H126C127.326 65 128.598 65.5268 129.536 66.4645C130.473 67.4021 131 68.6739 131 70V80H126C124.674 80 123.402 80.5268 122.464 81.4645C121.527 82.4021 121 83.6739 121 85C121 86.3261 121.527 87.5979 122.464 88.5355C123.402 89.4732 124.674 90 126 90H131Z" fill="#E2E3E9"/>
</g>
<defs>
<clipPath id="clip0_431_7108">
<rect width="50" height="50" fill="white" transform="translate(81 55)"/>
</clipPath>
</defs>
</svg>
